solid HAKBusbcover
facet normal 0.0 0.0 -1.0
  outer loop
    vertex 9.35 11.469999999999999 0.6
    vertex 0.49999999999999994 5.77 0.6
    vertex 0.49999999999999994 11.469999999999999 0.6
  endloop
endfacet
facet normal 0.0 0.0 -1.0
  outer loop
    vertex 0.49999999999999994 5.77 0.6
    vertex 9.35 11.469999999999999 0.6
    vertex 0.49999999999999994 0.07000000000000044 0.6
  endloop
endfacet
facet normal 0.0 0.0 -1.0
  outer loop
    vertex 0.49999999999999994 0.07000000000000044 0.6
    vertex 9.35 11.469999999999999 0.6
    vertex 9.35 0.07000000000000033 0.6
  endloop
endfacet
facet normal 0.0 0.0 -1.0
  outer loop
    vertex 9.35 0.07000000000000033 0.6
    vertex 9.35 11.469999999999999 0.6
    vertex 18.2 11.469999999999999 0.6
  endloop
endfacet
facet normal 0.0 0.0 -1.0
  outer loop
    vertex 9.35 0.07000000000000033 0.6
    vertex 18.2 11.469999999999999 0.6
    vertex 18.2 0.07 0.6
  endloop
endfacet
facet normal 0.0 0.0 -1.0
  outer loop
    vertex 18.2 0.07 0.6
    vertex 18.2 11.469999999999999 0.6
    vertex 18.2 5.77 0.6
  endloop
endfacet
facet normal -0.0 -0.0 1.0
  outer loop
    vertex 17.71 9.540000000000001 1.7999999999999998
    vertex 16.335 9.540000000000001 1.7999999999999998
    vertex 17.71 8.165000000000001 1.7999999999999998
  endloop
endfacet
facet normal -0.0 -0.0 1.0
  outer loop
    vertex 2.3649999999999998 2.0000000000000004 1.7999999999999998
    vertex 0.99 3.375000000000001 1.7999999999999998
    vertex 0.99 2.0000000000000004 1.7999999999999998
  endloop
endfacet
facet normal -0.0 -0.0 1.0
  outer loop
    vertex 17.71 3.375000000000001 1.7999999999999998
    vertex 16.335 2.0000000000000004 1.7999999999999998
    vertex 17.71 2.0000000000000004 1.7999999999999998
  endloop
endfacet
facet normal -0.0 -0.0 1.0
  outer loop
    vertex 2.3649999999999993 9.540000000000001 1.7999999999999998
    vertex 0.9899999999999993 9.540000000000001 1.7999999999999998
    vertex 0.9899999999999994 8.165000000000001 1.7999999999999998
  endloop
endfacet
facet normal -0.0 1.0 -0.0
  outer loop
    vertex 9.35 9.540000000000001 4.3
    vertex 15.384864846318585 9.540000000000001 1.7999999999999998
    vertex 9.35 9.540000000000001 1.7999999999999998
  endloop
endfacet
facet normal -0.0 1.0 -0.0
  outer loop
    vertex 15.384864846318585 9.540000000000001 1.7999999999999998
    vertex 9.35 9.540000000000001 4.3
    vertex 15.384864846318585 9.540000000000001 4.3
  endloop
endfacet
facet normal -0.0 1.0 -0.0
  outer loop
    vertex 3.299999999999999 9.540000000000001 4.3
    vertex 9.35 9.540000000000001 1.7999999999999998
    vertex 3.299999999999999 9.540000000000001 1.7999999999999998
  endloop
endfacet
facet normal -0.0 1.0 -0.0
  outer loop
    vertex 9.35 9.540000000000001 1.7999999999999998
    vertex 3.299999999999999 9.540000000000001 4.3
    vertex 9.35 9.540000000000001 4.3
  endloop
endfacet
facet normal 0.0 -1.0 0.0
  outer loop
    vertex 9.35 2.0000000000000004 4.3
    vertex 3.2999999999999994 2.0000000000000004 1.7999999999999998
    vertex 9.35 2.0000000000000004 1.7999999999999998
  endloop
endfacet
facet normal 0.0 -1.0 0.0
  outer loop
    vertex 3.2999999999999994 2.0000000000000004 1.7999999999999998
    vertex 9.35 2.0000000000000004 4.3
    vertex 3.2999999999999994 2.0000000000000004 4.3
  endloop
endfacet
facet normal 0.0 -1.0 0.0
  outer loop
    vertex 15.414970369072986 2.0000000000000004 4.3
    vertex 9.35 2.0000000000000004 1.7999999999999998
    vertex 15.414970369072986 2.0000000000000004 1.7999999999999998
  endloop
endfacet
facet normal 0.0 -1.0 0.0
  outer loop
    vertex 9.35 2.0000000000000004 1.7999999999999998
    vertex 15.414970369072986 2.0000000000000004 4.3
    vertex 9.35 2.0000000000000004 4.3
  endloop
endfacet
facet normal -0.0 -0.0 1.0
  outer loop
    vertex 3.2999999999999994 2.0000000000000004 4.3
    vertex 1.9399703690729861 8.165000000000001 4.3
    vertex 1.9399703690729861 3.375000000000001 4.3
  endloop
endfacet
facet normal -0.0 -0.0 1.0
  outer loop
    vertex 1.9399703690729861 8.165000000000001 4.3
    vertex 3.2999999999999994 2.0000000000000004 4.3
    vertex 3.299999999999999 9.540000000000001 4.3
  endloop
endfacet
facet normal -0.0 -0.0 1.0
  outer loop
    vertex 3.299999999999999 9.540000000000001 4.3
    vertex 3.2999999999999994 2.0000000000000004 4.3
    vertex 9.35 9.540000000000001 4.3
  endloop
endfacet
facet normal -0.0 -0.0 1.0
  outer loop
    vertex 9.35 9.540000000000001 4.3
    vertex 3.2999999999999994 2.0000000000000004 4.3
    vertex 9.35 2.0000000000000004 4.3
  endloop
endfacet
facet normal -0.0 -0.0 1.0
  outer loop
    vertex 9.35 9.540000000000001 4.3
    vertex 9.35 2.0000000000000004 4.3
    vertex 15.414970369072986 2.0000000000000004 4.3
  endloop
endfacet
facet normal -0.0 -0.0 1.0
  outer loop
    vertex 9.35 9.540000000000001 4.3
    vertex 15.414970369072986 2.0000000000000004 4.3
    vertex 15.384864846318585 9.540000000000001 4.3
  endloop
endfacet
facet normal -0.0 -0.0 1.0
  outer loop
    vertex 15.384864846318585 9.540000000000001 4.3
    vertex 15.414970369072986 2.0000000000000004 4.3
    vertex 16.775 8.165000000000001 4.3
  endloop
endfacet
facet normal -0.0 -0.0 1.0
  outer loop
    vertex 16.775 8.165000000000001 4.3
    vertex 15.414970369072986 2.0000000000000004 4.3
    vertex 16.775 3.375000000000001 4.3
  endloop
endfacet
facet normal -0.0 -0.0 1.0
  outer loop
    vertex 2.3649999999999998 2.0000000000000004 1.7999999999999998
    vertex 0.99 5.77 1.7999999999999998
    vertex 0.99 3.375000000000001 1.7999999999999998
  endloop
endfacet
facet normal -0.0 -0.0 1.0
  outer loop
    vertex 0.99 5.77 1.7999999999999998
    vertex 2.3649999999999998 2.0000000000000004 1.7999999999999998
    vertex 1.9399703690729861 3.375000000000001 1.7999999999999998
  endloop
endfacet
facet normal -0.0 -0.0 1.0
  outer loop
    vertex 1.9399703690729861 3.375000000000001 1.7999999999999998
    vertex 2.3649999999999998 2.0000000000000004 1.7999999999999998
    vertex 3.2999999999999994 2.0000000000000004 1.7999999999999998
  endloop
endfacet
facet normal -0.0 -0.0 1.0
  outer loop
    vertex 0.99 5.77 1.7999999999999998
    vertex 2.3649999999999993 9.540000000000001 1.7999999999999998
    vertex 0.9899999999999994 8.165000000000001 1.7999999999999998
  endloop
endfacet
facet normal -0.0 -0.0 1.0
  outer loop
    vertex 2.3649999999999993 9.540000000000001 1.7999999999999998
    vertex 0.99 5.77 1.7999999999999998
    vertex 1.9399703690729861 8.165000000000001 1.7999999999999998
  endloop
endfacet
facet normal -0.0 -0.0 1.0
  outer loop
    vertex 1.9399703690729861 8.165000000000001 1.7999999999999998
    vertex 0.99 5.77 1.7999999999999998
    vertex 1.9399703690729861 3.375000000000001 1.7999999999999998
  endloop
endfacet
facet normal -0.0 -0.0 1.0
  outer loop
    vertex 2.3649999999999993 9.540000000000001 1.7999999999999998
    vertex 1.9399703690729861 8.165000000000001 1.7999999999999998
    vertex 3.299999999999999 9.540000000000001 1.7999999999999998
  endloop
endfacet
facet normal -0.7109665276469668 -0.7032258503252102 0.0
  outer loop
    vertex 1.9399703690729861 3.375000000000001 4.3
    vertex 3.2999999999999994 2.0000000000000004 1.7999999999999998
    vertex 3.2999999999999994 2.0000000000000004 4.3
  endloop
endfacet
facet normal -0.7109665276469668 -0.7032258503252102 0.0
  outer loop
    vertex 3.2999999999999994 2.0000000000000004 1.7999999999999998
    vertex 1.9399703690729861 3.375000000000001 4.3
    vertex 1.9399703690729861 3.375000000000001 1.7999999999999998
  endloop
endfacet
facet normal -1.0 0.0 -0.0
  outer loop
    vertex 1.9399703690729861 8.165000000000001 4.3
    vertex 1.9399703690729861 3.375000000000001 1.7999999999999998
    vertex 1.9399703690729861 3.375000000000001 4.3
  endloop
endfacet
facet normal -1.0 0.0 -0.0
  outer loop
    vertex 1.9399703690729861 3.375000000000001 1.7999999999999998
    vertex 1.9399703690729861 8.165000000000001 4.3
    vertex 1.9399703690729861 8.165000000000001 1.7999999999999998
  endloop
endfacet
facet normal -0.7109665276469669 0.7032258503252101 1.1184400632411274e-31
  outer loop
    vertex 3.299999999999999 9.540000000000001 4.3
    vertex 1.9399703690729861 8.165000000000001 1.7999999999999998
    vertex 1.9399703690729861 8.165000000000001 4.3
  endloop
endfacet
facet normal -0.7109665276469669 0.7032258503252101 1.1184400632411274e-31
  outer loop
    vertex 1.9399703690729861 8.165000000000001 1.7999999999999998
    vertex 3.299999999999999 9.540000000000001 4.3
    vertex 3.299999999999999 9.540000000000001 1.7999999999999998
  endloop
endfacet
facet normal -0.0 -0.0 1.0
  outer loop
    vertex 16.335 2.0000000000000004 1.7999999999999998
    vertex 16.775 3.375000000000001 1.7999999999999998
    vertex 15.414970369072986 2.0000000000000004 1.7999999999999998
  endloop
endfacet
facet normal -0.0 -0.0 1.0
  outer loop
    vertex 16.775 3.375000000000001 1.7999999999999998
    vertex 16.335 2.0000000000000004 1.7999999999999998
    vertex 17.71 3.375000000000001 1.7999999999999998
  endloop
endfacet
facet normal -0.0 -0.0 1.0
  outer loop
    vertex 16.775 3.375000000000001 1.7999999999999998
    vertex 17.71 3.375000000000001 1.7999999999999998
    vertex 16.775 8.165000000000001 1.7999999999999998
  endloop
endfacet
facet normal -0.0 -0.0 1.0
  outer loop
    vertex 16.775 8.165000000000001 1.7999999999999998
    vertex 16.335 9.540000000000001 1.7999999999999998
    vertex 15.384864846318585 9.540000000000001 1.7999999999999998
  endloop
endfacet
facet normal -0.0 -0.0 1.0
  outer loop
    vertex 16.335 9.540000000000001 1.7999999999999998
    vertex 16.775 8.165000000000001 1.7999999999999998
    vertex 17.71 8.165000000000001 1.7999999999999998
  endloop
endfacet
facet normal -0.0 -0.0 1.0
  outer loop
    vertex 17.71 8.165000000000001 1.7999999999999998
    vertex 16.775 8.165000000000001 1.7999999999999998
    vertex 17.71 3.375000000000001 1.7999999999999998
  endloop
endfacet
facet normal -0.0 -0.0 1.0
  outer loop
    vertex 17.71 8.165000000000001 1.7999999999999998
    vertex 17.71 3.375000000000001 1.7999999999999998
    vertex 17.71 5.77 1.7999999999999998
  endloop
endfacet
facet normal 1.0 0.0 0.0
  outer loop
    vertex 16.775 8.165000000000001 1.7999999999999998
    vertex 16.775 3.375000000000001 4.3
    vertex 16.775 3.375000000000001 1.7999999999999998
  endloop
endfacet
facet normal 1.0 0.0 0.0
  outer loop
    vertex 16.775 3.375000000000001 4.3
    vertex 16.775 8.165000000000001 1.7999999999999998
    vertex 16.775 8.165000000000001 4.3
  endloop
endfacet
facet normal 0.7109665276469664 -0.7032258503252105 1.5913907864287034e-17
  outer loop
    vertex 16.775 3.375000000000001 1.7999999999999998
    vertex 15.414970369072986 2.0000000000000004 4.3
    vertex 15.414970369072986 2.0000000000000004 1.7999999999999998
  endloop
endfacet
facet normal 0.7109665276469664 -0.7032258503252105 1.5913907864287034e-17
  outer loop
    vertex 15.414970369072986 2.0000000000000004 4.3
    vertex 16.775 3.375000000000001 1.7999999999999998
    vertex 16.775 3.375000000000001 4.3
  endloop
endfacet
facet normal 0.7032258503252099 0.7109665276469671 -1.5740644537653152e-17
  outer loop
    vertex 15.384864846318585 9.540000000000001 4.3
    vertex 16.775 8.165000000000001 1.7999999999999998
    vertex 15.384864846318585 9.540000000000001 1.7999999999999998
  endloop
endfacet
facet normal 0.7032258503252099 0.7109665276469671 -1.5740644537653152e-17
  outer loop
    vertex 16.775 8.165000000000001 1.7999999999999998
    vertex 15.384864846318585 9.540000000000001 4.3
    vertex 16.775 8.165000000000001 4.3
  endloop
endfacet
facet normal -0.0 -0.0 1.0
  outer loop
    vertex 18.2 5.77 1.7999999999999998
    vertex 17.71 8.165000000000001 1.7999999999999998
    vertex 17.71 5.77 1.7999999999999998
  endloop
endfacet
facet normal -0.0 -0.0 1.0
  outer loop
    vertex 17.71 8.165000000000001 1.7999999999999998
    vertex 18.2 5.77 1.7999999999999998
    vertex 17.71 9.540000000000001 1.7999999999999998
  endloop
endfacet
facet normal -0.0 -0.0 1.0
  outer loop
    vertex 15.384864846318585 9.540000000000001 1.7999999999999998
    vertex 9.35 11.469999999999999 1.7999999999999998
    vertex 9.35 9.540000000000001 1.7999999999999998
  endloop
endfacet
facet normal -0.0 -0.0 1.0
  outer loop
    vertex 9.35 11.469999999999999 1.7999999999999998
    vertex 15.384864846318585 9.540000000000001 1.7999999999999998
    vertex 18.2 11.469999999999999 1.7999999999999998
  endloop
endfacet
facet normal -0.0 -0.0 1.0
  outer loop
    vertex 18.2 11.469999999999999 1.7999999999999998
    vertex 15.384864846318585 9.540000000000001 1.7999999999999998
    vertex 16.335 9.540000000000001 1.7999999999999998
  endloop
endfacet
facet normal -0.0 -0.0 1.0
  outer loop
    vertex 18.2 11.469999999999999 1.7999999999999998
    vertex 16.335 9.540000000000001 1.7999999999999998
    vertex 17.71 9.540000000000001 1.7999999999999998
  endloop
endfacet
facet normal -0.0 -0.0 1.0
  outer loop
    vertex 18.2 11.469999999999999 1.7999999999999998
    vertex 17.71 9.540000000000001 1.7999999999999998
    vertex 18.2 5.77 1.7999999999999998
  endloop
endfacet
facet normal -0.0 -0.0 1.0
  outer loop
    vertex 0.99 5.77 1.7999999999999998
    vertex 0.49999999999999994 11.469999999999999 1.7999999999999998
    vertex 0.49999999999999994 5.77 1.7999999999999998
  endloop
endfacet
facet normal -0.0 -0.0 1.0
  outer loop
    vertex 0.49999999999999994 11.469999999999999 1.7999999999999998
    vertex 0.99 5.77 1.7999999999999998
    vertex 0.9899999999999994 8.165000000000001 1.7999999999999998
  endloop
endfacet
facet normal -0.0 -0.0 1.0
  outer loop
    vertex 0.49999999999999994 11.469999999999999 1.7999999999999998
    vertex 0.9899999999999994 8.165000000000001 1.7999999999999998
    vertex 0.9899999999999993 9.540000000000001 1.7999999999999998
  endloop
endfacet
facet normal -0.0 -0.0 1.0
  outer loop
    vertex 0.9899999999999993 9.540000000000001 1.7999999999999998
    vertex 9.35 11.469999999999999 1.7999999999999998
    vertex 0.49999999999999994 11.469999999999999 1.7999999999999998
  endloop
endfacet
facet normal -0.0 -0.0 1.0
  outer loop
    vertex 9.35 11.469999999999999 1.7999999999999998
    vertex 0.9899999999999993 9.540000000000001 1.7999999999999998
    vertex 2.3649999999999993 9.540000000000001 1.7999999999999998
  endloop
endfacet
facet normal -0.0 -0.0 1.0
  outer loop
    vertex 9.35 11.469999999999999 1.7999999999999998
    vertex 2.3649999999999993 9.540000000000001 1.7999999999999998
    vertex 3.299999999999999 9.540000000000001 1.7999999999999998
  endloop
endfacet
facet normal -0.0 -0.0 1.0
  outer loop
    vertex 9.35 11.469999999999999 1.7999999999999998
    vertex 3.299999999999999 9.540000000000001 1.7999999999999998
    vertex 9.35 9.540000000000001 1.7999999999999998
  endloop
endfacet
facet normal -0.0 -0.0 1.0
  outer loop
    vertex 0.49999999999999994 0.07000000000000044 1.7999999999999998
    vertex 0.99 2.0000000000000004 1.7999999999999998
    vertex 0.49999999999999994 5.77 1.7999999999999998
  endloop
endfacet
facet normal -0.0 -0.0 1.0
  outer loop
    vertex 0.99 2.0000000000000004 1.7999999999999998
    vertex 0.49999999999999994 0.07000000000000044 1.7999999999999998
    vertex 9.35 0.07000000000000033 1.7999999999999998
  endloop
endfacet
facet normal -0.0 -0.0 1.0
  outer loop
    vertex 0.99 2.0000000000000004 1.7999999999999998
    vertex 9.35 0.07000000000000033 1.7999999999999998
    vertex 2.3649999999999998 2.0000000000000004 1.7999999999999998
  endloop
endfacet
facet normal -0.0 -0.0 1.0
  outer loop
    vertex 2.3649999999999998 2.0000000000000004 1.7999999999999998
    vertex 9.35 0.07000000000000033 1.7999999999999998
    vertex 3.2999999999999994 2.0000000000000004 1.7999999999999998
  endloop
endfacet
facet normal -0.0 -0.0 1.0
  outer loop
    vertex 3.2999999999999994 2.0000000000000004 1.7999999999999998
    vertex 9.35 0.07000000000000033 1.7999999999999998
    vertex 9.35 2.0000000000000004 1.7999999999999998
  endloop
endfacet
facet normal -0.0 -0.0 1.0
  outer loop
    vertex 0.99 2.0000000000000004 1.7999999999999998
    vertex 0.99 5.77 1.7999999999999998
    vertex 0.49999999999999994 5.77 1.7999999999999998
  endloop
endfacet
facet normal -0.0 -0.0 1.0
  outer loop
    vertex 0.99 5.77 1.7999999999999998
    vertex 0.99 2.0000000000000004 1.7999999999999998
    vertex 0.99 3.375000000000001 1.7999999999999998
  endloop
endfacet
facet normal -0.0 -0.0 1.0
  outer loop
    vertex 18.2 0.07 1.7999999999999998
    vertex 9.35 2.0000000000000004 1.7999999999999998
    vertex 9.35 0.07000000000000033 1.7999999999999998
  endloop
endfacet
facet normal -0.0 -0.0 1.0
  outer loop
    vertex 9.35 2.0000000000000004 1.7999999999999998
    vertex 18.2 0.07 1.7999999999999998
    vertex 15.414970369072986 2.0000000000000004 1.7999999999999998
  endloop
endfacet
facet normal -0.0 -0.0 1.0
  outer loop
    vertex 15.414970369072986 2.0000000000000004 1.7999999999999998
    vertex 18.2 0.07 1.7999999999999998
    vertex 16.335 2.0000000000000004 1.7999999999999998
  endloop
endfacet
facet normal -0.0 -0.0 1.0
  outer loop
    vertex 16.335 2.0000000000000004 1.7999999999999998
    vertex 18.2 0.07 1.7999999999999998
    vertex 17.71 2.0000000000000004 1.7999999999999998
  endloop
endfacet
facet normal -0.0 -0.0 1.0
  outer loop
    vertex 17.71 2.0000000000000004 1.7999999999999998
    vertex 18.2 0.07 1.7999999999999998
    vertex 17.71 3.375000000000001 1.7999999999999998
  endloop
endfacet
facet normal -0.0 -0.0 1.0
  outer loop
    vertex 17.71 3.375000000000001 1.7999999999999998
    vertex 18.2 0.07 1.7999999999999998
    vertex 17.71 5.77 1.7999999999999998
  endloop
endfacet
facet normal -0.0 -0.0 1.0
  outer loop
    vertex 17.71 5.77 1.7999999999999998
    vertex 18.2 0.07 1.7999999999999998
    vertex 18.2 5.77 1.7999999999999998
  endloop
endfacet
facet normal -1.24468859575737e-17 -1.0 0.0
  outer loop
    vertex 9.35 0.07000000000000033 1.7999999999999998
    vertex 0.49999999999999994 0.07000000000000044 0.6
    vertex 9.35 0.07000000000000033 0.6
  endloop
endfacet
facet normal -1.24468859575737e-17 -1.0 0.0
  outer loop
    vertex 0.49999999999999994 0.07000000000000044 0.6
    vertex 9.35 0.07000000000000033 1.7999999999999998
    vertex 0.49999999999999994 0.07000000000000044 1.7999999999999998
  endloop
endfacet
facet normal -1.0 0.0 -0.0
  outer loop
    vertex 0.49999999999999994 5.77 1.7999999999999998
    vertex 0.49999999999999994 0.07000000000000044 0.6
    vertex 0.49999999999999994 0.07000000000000044 1.7999999999999998
  endloop
endfacet
facet normal -1.0 0.0 -0.0
  outer loop
    vertex 0.49999999999999994 0.07000000000000044 0.6
    vertex 0.49999999999999994 5.77 1.7999999999999998
    vertex 0.49999999999999994 5.77 0.6
  endloop
endfacet
facet normal -1.0 0.0 -0.0
  outer loop
    vertex 0.49999999999999994 11.469999999999999 1.7999999999999998
    vertex 0.49999999999999994 5.77 0.6
    vertex 0.49999999999999994 5.77 1.7999999999999998
  endloop
endfacet
facet normal -1.0 0.0 -0.0
  outer loop
    vertex 0.49999999999999994 5.77 0.6
    vertex 0.49999999999999994 11.469999999999999 1.7999999999999998
    vertex 0.49999999999999994 11.469999999999999 0.6
  endloop
endfacet
facet normal -0.0 1.0 -0.0
  outer loop
    vertex 0.49999999999999994 11.469999999999999 1.7999999999999998
    vertex 9.35 11.469999999999999 0.6
    vertex 0.49999999999999994 11.469999999999999 0.6
  endloop
endfacet
facet normal -0.0 1.0 -0.0
  outer loop
    vertex 9.35 11.469999999999999 0.6
    vertex 0.49999999999999994 11.469999999999999 1.7999999999999998
    vertex 9.35 11.469999999999999 1.7999999999999998
  endloop
endfacet
facet normal 1.0 0.0 0.0
  outer loop
    vertex 18.2 11.469999999999999 0.6
    vertex 18.2 5.77 1.7999999999999998
    vertex 18.2 5.77 0.6
  endloop
endfacet
facet normal 1.0 0.0 0.0
  outer loop
    vertex 18.2 5.77 1.7999999999999998
    vertex 18.2 11.469999999999999 0.6
    vertex 18.2 11.469999999999999 1.7999999999999998
  endloop
endfacet
facet normal 1.0 0.0 0.0
  outer loop
    vertex 18.2 5.77 0.6
    vertex 18.2 0.07 1.7999999999999998
    vertex 18.2 0.07 0.6
  endloop
endfacet
facet normal 1.0 0.0 0.0
  outer loop
    vertex 18.2 0.07 1.7999999999999998
    vertex 18.2 5.77 0.6
    vertex 18.2 5.77 1.7999999999999998
  endloop
endfacet
facet normal -3.609596927696372e-17 -1.0 0.0
  outer loop
    vertex 18.2 0.07 1.7999999999999998
    vertex 9.35 0.07000000000000033 0.6
    vertex 18.2 0.07 0.6
  endloop
endfacet
facet normal -3.609596927696372e-17 -1.0 0.0
  outer loop
    vertex 9.35 0.07000000000000033 0.6
    vertex 18.2 0.07 1.7999999999999998
    vertex 9.35 0.07000000000000033 1.7999999999999998
  endloop
endfacet
facet normal -0.0 1.0 -0.0
  outer loop
    vertex 9.35 11.469999999999999 1.7999999999999998
    vertex 18.2 11.469999999999999 0.6
    vertex 9.35 11.469999999999999 0.6
  endloop
endfacet
facet normal -0.0 1.0 -0.0
  outer loop
    vertex 18.2 11.469999999999999 0.6
    vertex 9.35 11.469999999999999 1.7999999999999998
    vertex 18.2 11.469999999999999 1.7999999999999998
  endloop
endfacet
endsolid HAKBusbcover
